<svg xmlns="http://www.w3.org/2000/svg" width="320" height="100"
     viewBox="-1.356 -1.356 56.523 17.676">
  <path
      d="M9.917 1.55C9.281.823 8.13.512 6.66.512H2.387a.612.612 0 00-.604.516L.005 12.309a.367.367 0 00.362.423h2.637l.662-4.2-.02.131a.61.61 0 01.601-.516h1.254c2.461 0 4.389-1 4.952-3.892.017-.085.031-.169.044-.25-.072-.038-.072-.038 0 0 .167-1.07-.002-1.797-.58-2.456"
      fill="#003087" />
  <path
      d="M35.394 6.883h-1.42a.409.409 0 00-.338.18l-1.958 2.883-.83-2.77a.41.41 0 00-.392-.293H29.06a.246.246 0 00-.233.325l1.563 4.587-1.47 2.074a.246.246 0 00.2.388h1.418a.41.41 0 00.337-.176l4.72-6.812a.246.246 0 00-.202-.386m-9.488 2.748c-.137.807-.777 1.349-1.594 1.349-.41 0-.738-.132-.948-.381-.209-.248-.288-.6-.221-.992a1.58 1.58 0 011.582-1.359c.401 0 .726.133.941.385.217.254.302.608.24.998m1.968-2.748h-1.412a.246.246 0 00-.243.208l-.062.394-.099-.143c-.306-.443-.988-.592-1.668-.592-1.56 0-2.892 1.182-3.152 2.84-.135.828.057 1.618.526 2.17.43.506 1.046.717 1.778.717 1.258 0 1.955-.807 1.955-.807l-.063.392a.246.246 0 00.243.284h1.271a.41.41 0 00.405-.345l.764-4.834a.246.246 0 00-.243-.284m-8.474.034c-.16 1.058-.97 1.058-1.751 1.058h-.445L17.516 6a.245.245 0 01.243-.207h.204c.532 0 1.035 0 1.294.303.155.181.202.45.143.822m-.34-2.762h-2.949a.41.41 0 00-.405.346l-1.192 7.561a.246.246 0 00.243.284h1.408a.41.41 0 00.404-.345l.322-2.04a.41.41 0 01.405-.346h.933c1.942 0 3.063-.94 3.356-2.803.132-.815.006-1.455-.376-1.903-.42-.493-1.162-.754-2.149-.754"
      fill="#002f86" />
  <path
      d="M50.57 4.363l-1.21 7.7a.246.246 0 00.242.284h1.217a.41.41 0 00.405-.346l1.193-7.562a.246.246 0 00-.243-.284h-1.362a.245.245 0 00-.242.208m-3.633 5.268c-.136.807-.776 1.349-1.593 1.349-.41 0-.738-.132-.948-.381-.21-.248-.288-.6-.222-.992a1.58 1.58 0 011.583-1.359c.4 0 .726.133.941.385.216.254.301.608.24.998m1.967-2.748h-1.412a.246.246 0 00-.243.208l-.062.394-.098-.143c-.306-.443-.988-.592-1.668-.592-1.56 0-2.893 1.182-3.152 2.84-.135.828.057 1.618.526 2.17.43.506 1.045.717 1.778.717 1.258 0 1.955-.807 1.955-.807l-.063.392a.246.246 0 00.243.284h1.27a.41.41 0 00.406-.345l.763-4.834a.246.246 0 00-.243-.284m-8.473.034c-.161 1.058-.97 1.058-1.752 1.058h-.444L38.548 6a.245.245 0 01.242-.207h.205c.532 0 1.034 0 1.294.303.155.181.202.45.143.822m-.34-2.762h-2.949a.41.41 0 00-.405.346l-1.192 7.561a.246.246 0 00.242.284h1.514a.287.287 0 00.283-.241l.338-2.144a.41.41 0 01.405-.346h.933c1.942 0 3.063-.94 3.356-2.803.132-.815.005-1.455-.376-1.903-.42-.493-1.163-.754-2.15-.754"
      fill="#009cde" />
  <path
      d="M9.917 1.55C9.281.823 8.13.512 6.66.512H2.387a.612.612 0 00-.604.516L.005 12.309a.367.367 0 00.362.423h2.637l.662-4.2-.02.131a.61.61 0 01.601-.516h1.254c2.461 0 4.389-1 4.952-3.892.017-.085.031-.169.044-.25-.072-.038-.072-.038 0 0 .167-1.07-.002-1.797-.58-2.456"
      fill="#003087" />
  <path
      d="M4.378 4.02a.535.535 0 01.528-.452h3.349c.396 0 .766.026 1.104.08a4.63 4.63 0 01.675.161c.166.056.32.12.463.196.167-1.07-.002-1.797-.58-2.456C9.28.824 8.13.513 6.66.513H2.387c-.3 0-.557.219-.604.516L.005 12.309a.366.366 0 00.362.423h2.637l.662-4.2.712-4.513z"
      fill="#002f86" />
  <path
      d="M10.497 4.005a7.004 7.004 0 01-.044.25C9.89 7.147 7.963 8.147 5.5 8.147H4.247c-.3 0-.555.22-.601.516l-.642 4.07-.182 1.153c-.03.195.12.371.317.371H5.36a.535.535 0 00.529-.45l.021-.114.42-2.655.026-.147a.535.535 0 01.528-.451h.333c2.153 0 3.84-.875 4.332-3.405.206-1.058.1-1.94-.445-2.56a2.123 2.123 0 00-.608-.47"
      fill="#009cde" />
  <path
      d="M9.907 3.77a4.107 4.107 0 00-.548-.122 6.95 6.95 0 00-1.105-.08H4.906a.534.534 0 00-.528.452l-.712 4.512-.02.131a.609.609 0 01.601-.516h1.254c2.461 0 4.389-1 4.952-3.892.017-.085.03-.168.044-.25a3.04 3.04 0 00-.59-.235"
      fill="#012069" />
  <text style="line-height:125%" x="26.828" y="2.892" font-weight="400" font-size="4.419"
        font-family="sans-serif" letter-spacing="0" word-spacing="0" fill="#002f86">
    <tspan x="26.828" y="2.892">
      <tspan fill-opacity=".988">donate</tspan>
      with
    </tspan>
  </text>
</svg>
